# xmcd
#
# Track frame offsets: 
#        150
#        16150
#        39839
#        56696
#        79652
#        107204
#        125834
#        142135
#        160615
#        181581
#        203445
#        214952
#
# Disc length: 3143 seconds
#
# Revision: 0
# Processed by: cddbd v1.5.2PL0 Copyright (c) Steve Scherf et al.
# Submitted via: ExactAudioCopy v0.99pb3
#
DISCID=9c0c450c
DTITLE=Earl Gaines - You Got The Walk
DYEAR=2011
DGENRE=Blues
TTITLE0=You Got The Walk
TTITLE1=A Fool's Advice
TTITLE2=The Preacher's Daughter
TTITLE3=Living On Borrowed Time
TTITLE4=Love And Tenderness
TTITLE5=Shoulda Been Me
TTITLE6=Stacked In The Back
TTITLE7=Mercy On My Soul
TTITLE8=Part Time Love
TTITLE9=You're Gonna Burn
TTITLE10=Somebody Somewhere
TTITLE11=Breakdown
EXTD=
EXTT0=
EXTT1=
EXTT2=
EXTT3=
EXTT4=
EXTT5=
EXTT6=
EXTT7=
EXTT8=
EXTT9=
EXTT10=
EXTT11=
PLAYORDER=
